{"title":"The Witches Hammer DVDrip Eng Xvid MP3 M333","uid":4249248,"size":733469014,"categoryP":"video","categoryS":"movies","magnet":"?xt=urn:btih:e2606498f925f9a035009647f6944f09763c2207&amp;dn=The+Witches+Hammer+DVDrip+Eng+Xvid+MP3+M333&amp;tr=udp%3A%2F%2Ftracker.openbittorrent.com%3A80&amp;tr=udp%3A%2F%2Fopen.demonii.com%3A1337&amp;tr=udp%3A%2F%2Ftracker.coppersurfer.tk%3A6969&amp;tr=udp%3A%2F%2Fexodus.desync.com%3A6969","seeders":0,"leechers":1,"uploader":"circlensess","files":4,"time":1213926092,"description":"General\nComplete name : The.Witches.Hammer.DVDrip.Eng.Xvid.MP3.M333.avi\nFormat : AVI\nFormat/Info : Audio Video Interleave\nFile size : 699 MiB\nDuration : 1h 31mn\nOveral bit rate : 1070 Kbps\nWriting application : Nandub v1.0rc2\nWriting library : Nandub build 1852/release\n\nVideo\nFormat : MPEG-4 Visual\nFormat profile : Streaming Video@L1\nFormat settings, BVOP : Yes\nFormat settings, QPel : No\nFormat settings, GMC : No warppoints\nFormat settings, Matrix : Default\nCodec ID : XVID\nCodec ID/Hint : XviD\nDuration : 1h 31mn\nBit rate : 937 Kbps\nWidth : 640 pixels\nHeight : 352 pixels\nDisplay aspect ratio : 16/9\nFrame rate : 25.000 fps\nResolution : 8 bits\nColorimetry : 4:2:0\nScan type : Progressive\nBits/(Pixel*Frame) : 0.166\nStream size : 612 MiB\nWriting library : XviD 1.1.2 (UTC 2006-11-01)\n\nAudio\nFormat : MPEG Audio\nFormat version : Version 1\nFormat profile : Layer 3\nCodec ID : 55\nCodec ID/Hint : MP3\nDuration : 1h 31mn\nBit rate mode : Variable\nBit rate : 120 Kbps\nChannel(s) : 2 channels\nSampling rate : 48.0 KHz\nResolution : 16 bits\nVideo delay : 8ms\nStream size : 78.6 MiB\n\nImdb http://www.imdb.com/title/tt0400944/","torrent":{"xt":"urn:btih:e2606498f925f9a035009647f6944f09763c2207","amp;dn":"The+Witches+Hammer+DVDrip+Eng+Xvid+MP3+M333","amp;tr":["udp%3A%2F%2Ftracker.openbittorrent.com%3A80","udp%3A%2F%2Fopen.demonii.com%3A1337","udp%3A%2F%2Ftracker.coppersurfer.tk%3A6969","udp%3A%2F%2Fexodus.desync.com%3A6969"],"infoHash":"e2606498f925f9a035009647f6944f09763c2207","infoHashBuffer":{"type":"Buffer","data":[226,96,100,152,249,37,249,160,53,0,150,71,246,148,79,9,118,60,34,7]},"announce":[],"urlList":[]}}